# Blender 4.5.6 LTS
# www.blender.org
mtllib Snail.mtl
o Shell
v 0.012972 -0.025392 -0.019394
v 0.012972 -0.025392 0.019394
v -0.036816 -0.017032 0.009697
v 0.005513 -0.002958 0.009697
v -0.036816 -0.017032 -0.009697
v 0.005513 -0.002958 -0.009697
v 0.024853 -0.018251 -0.019394
v 0.024853 -0.018251 0.019394
v 0.005391 -0.003133 0.009697
v 0.005391 -0.003133 -0.009697
v 0.031649 -0.007098 -0.019393
v 0.057919 -0.010866 -0.009697
v 0.057919 -0.010866 0.009697
v 0.031649 -0.007098 0.019394
v 0.005378 -0.003330 0.009697
v 0.005378 -0.003330 -0.009697
v 0.031546 0.005090 -0.019393
v 0.057614 0.013678 -0.009696
v 0.057614 0.013678 0.009697
v 0.031546 0.005090 0.019394
v 0.005478 -0.003498 0.009697
v 0.005478 -0.003498 -0.009696
v 0.024572 0.015060 -0.019393
v 0.043480 0.033712 -0.009696
v 0.043480 0.033712 0.009697
v 0.024572 0.015060 0.019394
v 0.005664 -0.003591 0.009697
v 0.005664 -0.003591 -0.009696
v 0.012588 0.020152 -0.019393
v 0.019289 0.043889 -0.009696
v 0.019289 0.043889 0.009698
v 0.012588 0.020152 0.019394
v 0.005886 -0.003585 0.009698
v 0.005886 -0.003585 -0.009696
v -0.001208 0.019006 -0.019393
v -0.008501 0.041494 -0.009696
v -0.008501 0.041494 0.009698
v -0.001208 0.019006 0.019395
v 0.006085 -0.003482 0.009698
v 0.006085 -0.003482 -0.009696
v -0.013133 0.011928 -0.019393
v -0.032475 0.027165 -0.009696
v -0.032475 0.027165 0.009698
v -0.013133 0.011928 0.019395
v 0.006208 -0.003308 0.009698
v 0.006208 -0.003308 -0.009696
v -0.020005 0.000808 -0.019393
v -0.046233 0.004727 -0.009696
v -0.046233 0.004727 0.009698
v -0.020005 0.000808 0.019395
v 0.006222 -0.003111 0.009698
v 0.006222 -0.003111 -0.009696
v -0.019990 -0.011388 -0.019393
v -0.019990 -0.011388 0.019395
v 0.006124 -0.002943 0.009698
v 0.006124 -0.002943 -0.009696
v 0.027281 -0.040872 -0.027282
v -0.027281 -0.040471 -0.027282
v 0.027455 -0.017246 -0.013641
v -0.027051 -0.016789 -0.013587
v 0.027455 -0.017246 0.013641
v -0.027107 -0.016845 0.013641
v 0.027281 -0.040872 0.027282
v -0.027281 -0.040471 0.027282
v 0.027107 -0.064498 0.013641
v -0.027455 -0.064097 0.013641
v 0.027107 -0.064498 -0.013641
v -0.027455 -0.064097 -0.013641
v -0.110965 -0.032893 -0.004019
v -0.111016 -0.039854 -0.008038
v -0.110965 -0.032893 0.004019
v -0.111016 -0.039854 0.008038
v -0.111067 -0.046815 0.004019
v -0.111067 -0.046815 -0.004019
v 0.088317 -0.041321 -0.027282
v 0.088491 -0.017695 -0.013641
v 0.088491 -0.017695 0.013641
v 0.088317 -0.041321 0.027282
v 0.088144 -0.064947 0.013641
v 0.088144 -0.064947 -0.013641
v 0.067466 -0.041168 -0.027282
v 0.067292 -0.064794 -0.013641
v 0.067292 -0.064794 0.013641
v 0.067466 -0.041168 0.027282
v 0.067640 -0.017542 0.013641
v 0.067640 -0.017542 -0.013641
v 0.083713 0.001665 -0.035127
v 0.083805 0.001755 -0.020602
v 0.083805 0.001530 0.022633
v 0.083713 0.001893 0.037154
v 0.072611 0.001706 -0.035056
v 0.072704 0.001569 0.022561
v 0.072611 0.001932 0.037082
v 0.072704 0.001797 -0.020531
v 0.079398 0.032050 -0.027254
v 0.079417 0.032067 -0.024408
v 0.079417 0.032023 0.026002
v 0.079398 0.032094 0.028847
v 0.077223 0.032058 -0.027240
v 0.077241 0.032031 0.025988
v 0.077223 0.032102 0.028833
v 0.077241 0.032075 -0.024394
v 0.107091 -0.041460 -0.009028
v 0.107149 -0.033641 -0.004514
v 0.107149 -0.033641 0.004514
v 0.107091 -0.041460 0.009029
v 0.107034 -0.049278 0.004514
v 0.107034 -0.049278 -0.004514
v -0.062413 -0.020357 -0.011463
v -0.097720 -0.023869 -0.009285
v -0.097720 -0.023869 0.009285
v -0.062413 -0.020357 0.011463
v -0.062706 -0.060065 0.011463
v -0.097957 -0.056033 0.009285
v -0.097957 -0.056033 -0.009285
v -0.062706 -0.060065 -0.011463
v -0.062560 -0.040211 -0.022926
v -0.097838 -0.039951 -0.018570
v -0.097838 -0.039951 0.018570
v -0.062560 -0.040211 0.022926
v 0.086783 -0.026917 0.030573
v 0.085248 -0.012512 0.033863
v 0.070896 -0.012435 0.033815
v 0.069181 -0.026801 0.030549
v 0.086929 -0.011287 0.016638
v 0.085367 -0.004879 0.019636
v 0.071016 -0.004801 0.019588
v 0.069328 -0.011172 0.016614
v 0.082343 0.011694 0.023756
v 0.080880 0.021859 0.024879
v 0.080837 0.022027 0.031616
v 0.082275 0.011960 0.034385
v 0.074148 0.011989 0.034332
v 0.075686 0.022045 0.031583
v 0.075729 0.021877 0.024846
v 0.074216 0.011723 0.023703
v 0.074148 0.011824 -0.032451
v 0.075686 0.021941 -0.029846
v 0.080837 0.021921 -0.029878
v 0.082275 0.011793 -0.032503
v 0.080880 0.021963 -0.023139
v 0.082343 0.011859 -0.021871
v 0.074216 0.011890 -0.021819
v 0.075729 0.021983 -0.023107
v 0.086929 -0.011212 -0.015961
v 0.085367 -0.004728 -0.018281
v 0.071016 -0.004650 -0.018234
v 0.069328 -0.011096 -0.015938
v 0.069181 -0.026877 -0.029873
v 0.070896 -0.012585 -0.032465
v 0.085248 -0.012664 -0.032512
v 0.086783 -0.026993 -0.029897
v 0.007878 -0.027085 -0.019394
v 0.007996 -0.027046 0.019394
v -0.006223 -0.016960 0.013628
v -0.006228 -0.016920 -0.013572
v 0.013294 -0.026362 0.018975
v 0.027419 -0.022218 0.016512
v 0.041854 -0.017352 0.013641
v 0.054029 -0.017300 -0.009697
v 0.053983 -0.017376 0.009697
v -0.038876 -0.017990 0.010767
v -0.027062 -0.016779 0.010861
v -0.046110 -0.018687 -0.009696
v -0.046110 -0.018680 0.009698
v -0.041244 -0.018261 -0.011501
v -0.041134 -0.018225 -0.006602
v 0.030295 -0.022479 -0.016682
v 0.042067 -0.017275 -0.013760
v 0.053711 -0.017439 -0.013641
v 0.053877 -0.017441 0.013641
v 0.054059 -0.017251 -0.009697
vn -0.3155 0.9489 -0.0000
vn 0.8194 -0.5733 -0.0000
vn 0.2658 -0.4236 0.8660
vn -0.1979 0.3341 -0.9215
vn -0.1979 0.3340 0.9215
vn 0.8595 0.5111 -0.0000
vn -0.3139 0.1943 -0.9294
vn -0.3139 0.1943 0.9294
vn 0.9979 -0.0644 -0.0000
vn 0.3217 -0.2634 0.9095
vn -0.2856 -0.1963 -0.9380
vn 0.3471 0.0039 0.9378
vn 0.3471 0.0039 -0.9378
vn -0.3475 -0.0001 -0.9377
vn -0.3475 -0.0001 0.9377
vn 0.9999 0.0124 -0.0000
vn -0.0258 0.9997 -0.0000
vn -0.2856 -0.1963 0.9380
vn 0.8171 0.5765 -0.0000
vn 0.4498 0.8931 -0.0000
vn 0.2836 0.1995 0.9380
vn 0.2836 0.1995 -0.9380
vn 0.0296 -0.3864 -0.9219
vn 0.1431 0.3390 0.9298
vn 0.1431 0.3390 -0.9298
vn -0.1462 -0.3372 -0.9300
vn -0.1461 -0.3372 0.9300
vn 0.3878 0.9217 -0.0000
vn -0.8158 0.5783 -0.0000
vn 0.0296 -0.3864 0.9219
vn -0.0859 0.9963 -0.0000
vn -0.4611 0.8874 -0.0000
vn -0.0329 0.3863 0.9218
vn -0.0329 0.3863 -0.9218
vn 0.3129 -0.1965 -0.9292
vn -0.1988 0.3334 0.9216
vn -0.1988 0.3334 -0.9216
vn 0.1961 -0.3353 -0.9215
vn 0.1961 -0.3353 0.9215
vn -0.5130 0.8584 -0.0000
vn -0.8632 -0.5048 -0.0000
vn 0.3129 -0.1964 0.9292
vn -0.8525 0.5227 -0.0000
vn -0.9974 0.0715 -0.0000
vn -0.3143 0.1932 0.9294
vn -0.3143 0.1932 -0.9294
vn -0.3369 -0.0424 0.9406
vn -0.3473 -0.0014 -0.9377
vn 0.3476 -0.0024 -0.9376
vn 0.3476 -0.0024 0.9376
vn -1.0000 -0.0052 -0.0000
vn 0.0035 0.5003 -0.8659
vn 0.0079 1.0000 0.0010
vn 0.0037 0.5000 0.8660
vn -0.0037 -0.5000 0.8660
vn -0.5631 0.8264 -0.0000
vn -0.0074 -1.0000 -0.0000
vn -0.0037 -0.5000 -0.8660
vn -1.0000 0.0074 -0.0000
vn -0.5752 -0.8180 -0.0000
vn -0.5661 0.4153 -0.7121
vn -0.5661 0.4153 0.7121
vn -0.5721 -0.4069 -0.7121
vn -0.5721 -0.4069 0.7121
vn 0.6413 -0.3872 0.6625
vn 0.0074 1.0000 -0.0000
vn -0.0054 -0.1790 -0.9838
vn 0.0059 0.3362 0.9418
vn 0.0037 0.5000 -0.8660
vn -0.9889 0.1484 -0.0100
vn 0.9898 0.1422 0.0028
vn -0.0056 -0.2222 0.9750
vn 0.9900 0.1348 0.0414
vn 0.9896 0.1365 -0.0454
vn -0.9878 0.1527 0.0313
vn 0.0062 0.4233 -0.9060
vn -0.9875 0.1536 -0.0356
vn 0.0037 1.0000 -0.0062
vn 0.0037 0.9997 -0.0250
vn -0.0053 0.2645 0.9644
vn -0.0052 0.2501 -0.9682
vn 0.9898 0.1424 -0.0072
vn -0.9888 0.1489 0.0054
vn 0.0068 0.1256 0.9921
vn 0.0068 0.1108 -0.9938
vn 1.0000 -0.0074 -0.0000
vn 0.6497 0.7602 -0.0000
vn 0.6384 -0.7697 -0.0000
vn 0.6469 0.3777 0.6625
vn 0.6469 0.3777 -0.6625
vn 0.6413 -0.3872 -0.6625
vn -0.1100 -0.4964 0.8611
vn -0.1100 -0.4964 -0.8611
vn -0.1027 0.4979 0.8611
vn -0.1023 0.4984 -0.8609
vn -0.1027 0.4979 -0.8611
vn -0.1136 -0.9935 -0.0000
vn -0.0997 0.9950 0.0010
vn -0.0990 0.9951 -0.0000
vn 0.0035 0.4233 -0.9060
vn 0.0046 0.4233 -0.9060
vn -0.9816 0.1152 0.1525
vn -0.9863 0.1319 0.0996
vn 0.9831 0.0999 0.1536
vn 0.9878 0.1154 0.1046
vn -0.0022 -0.2222 0.9750
vn -0.0035 -0.2222 0.9750
vn -0.9790 0.1222 -0.1632
vn -0.9850 0.1367 -0.1058
vn 0.9806 0.1070 -0.1643
vn 0.9865 0.1205 -0.1108
vn 0.0029 0.3363 0.9418
vn 0.0041 0.3363 0.9418
vn -0.0019 -0.1790 -0.9839
vn -0.0033 -0.1790 -0.9839
vn -0.1197 0.3601 0.9252
vn -0.1217 0.3599 -0.9250
vn 0.3099 -0.2029 0.9289
vn 0.1197 -0.3601 0.9252
vn 0.8558 -0.5173 -0.0000
vn -0.1194 0.3775 0.9183
vn 0.3117 -0.9502 -0.0036
vn 0.2068 -0.3973 -0.8941
vn 0.3153 -0.1914 -0.9295
vn -0.1146 0.5418 -0.8326
vn 0.8558 -0.5174 -0.0000
vt 0.054381 0.003400
vt 0.083216 0.062755
vt 0.066782 0.072790
vt 0.030201 0.016404
vt 0.083263 0.063004
vt 0.066963 0.072955
vt 0.123303 0.042815
vt 0.125012 0.042058
vt 0.137351 0.065856
vt 0.127404 0.065375
vt 0.030047 0.095108
vt 0.045330 0.109483
vt 0.067166 0.073074
vt 0.083256 0.063257
vt 0.083229 0.063501
vt 0.067372 0.073176
vt 0.061554 0.110958
vt 0.118865 0.081103
vt 0.135387 0.101428
vt 0.072363 0.103294
vt 0.067598 0.073269
vt 0.077322 0.096903
vt 0.112011 0.118069
vt 0.097319 0.102157
vt 0.105788 0.085814
vt 0.092616 0.124476
vt 0.090229 0.106068
vt 0.083183 0.063759
vt 0.083103 0.064041
vt 0.067856 0.073348
vt 0.097426 0.086240
vt 0.087985 0.098370
vt 0.092379 0.095841
vt 0.079758 0.092393
vt 0.068133 0.073403
vt 0.081310 0.089310
vt 0.089129 0.091471
vt 0.092215 0.085708
vt 0.086212 0.093127
vt 0.082991 0.064336
vt 0.082872 0.064616
vt 0.068397 0.073443
vt 0.088730 0.085279
vt 0.085052 0.089643
vt 0.086907 0.088593
vt 0.082050 0.087450
vt 0.068640 0.073480
vt 0.082563 0.086299
vt 0.085394 0.086827
vt 0.086749 0.084856
vt 0.084417 0.087414
vt 0.082763 0.064873
vt 0.082644 0.065174
vt 0.068891 0.073513
vt 0.085486 0.084642
vt 0.084105 0.086301
vt 0.084580 0.085955
vt 0.084196 0.085677
vt 0.084227 0.085499
vt 0.084610 0.084601
vt 0.083027 0.085600
vt 0.083847 0.085839
vt 0.083955 0.085837
vt 0.010485 0.628047
vt 0.010571 0.436539
vt 0.010333 0.435854
vt 0.015119 0.631262
vt 0.008967 0.433250
vt 0.024867 0.627573
vt 0.010646 0.433933
vt 0.009498 0.631531
vt 0.005647 0.625922
vt 0.010656 0.435466
vt 0.011067 0.625583
vt 0.000028 0.193453
vt 0.006400 0.198804
vt 0.006745 0.159279
vt 0.007872 0.133120
vt 0.010971 0.435569
vt 0.011223 0.623994
vt 0.336826 0.730113
vt 0.334189 0.730885
vt 0.334076 0.784416
vt 0.338276 0.777500
vt 0.006393 0.138970
vt 0.008903 0.086145
vt 0.008209 0.084726
vt 0.007246 0.091126
vt 0.020275 0.170801
vt 0.008679 0.138830
vt 0.006025 0.000028
vt 0.011385 0.194134
vt 0.000352 0.166033
vt 0.347182 0.810294
vt 0.344884 0.789021
vt 0.340380 0.843420
vt 0.340426 0.890720
vt 0.337027 0.744588
vt 0.339016 0.736030
vt 0.336135 0.744601
vt 0.336333 0.759852
vt 0.323621 0.830783
vt 0.334995 0.806965
vt 0.338024 0.774204
vt 0.338225 0.764031
vt 0.338402 0.768597
vt 0.338193 0.771492
vt 0.338318 0.764412
vt 0.338577 0.779118
vt 0.338716 0.773537
vt 0.338537 0.768222
vt 0.012605 0.670743
vt 0.016535 0.696001
vt 0.012542 0.744601
vt 0.010596 0.730885
vt 0.013233 0.730113
vt 0.015423 0.736030
vt 0.016231 0.714863
vt 0.013434 0.744588
vt 0.329696 0.789602
vt 0.329713 0.789560
vt 0.329695 0.789681
vt 0.329697 0.789686
vt 0.329640 0.789739
vt 0.329717 0.789802
vt 0.329703 0.789696
vt 0.329675 0.789698
vt 0.331223 0.782782
vt 0.330655 0.794037
vt 0.330085 0.790771
vt 0.330229 0.787631
vt 0.327378 0.799067
vt 0.328642 0.792968
vt 0.330655 0.782624
vt 0.329904 0.786902
vt 0.338467 0.770571
vt 0.338466 0.770575
vt 0.338459 0.770584
vt 0.338484 0.770591
vt 0.338519 0.770636
vt 0.338472 0.770454
vt 0.338430 0.770674
vt 0.338474 0.770500
vt 0.336577 0.840119
vt 0.335003 0.877211
vt 0.339628 0.999972
vt 0.336122 0.836312
vt 0.007340 0.319919
vt 0.009786 0.316484
vt 0.011955 0.321388
vt 0.010431 0.326210
vt 0.007247 0.325042
vt 0.008758 0.331275
vt 0.332016 0.774620
vt 0.325790 0.810201
vt 0.334663 0.771232
vt 0.335242 0.800685
vt 0.329693 0.789084
vt 0.329600 0.790475
vt 0.329664 0.789989
vt 0.329839 0.789032
vt 0.338400 0.771268
vt 0.338519 0.770064
vt 0.338460 0.769949
vt 0.338511 0.770859
vt 0.337997 0.757703
vt 0.336514 0.753578
vt 0.336487 0.778187
vt 0.337455 0.788529
vt 0.086210 0.032815
vt 0.119483 0.034910
vt 0.024923 0.088057
vt 0.039205 0.060125
vt 0.121958 0.123365
vt 0.012740 0.759852
vt 0.091153 0.133864
vt 0.091165 0.133767
vt 0.054071 0.000028
vt 0.063680 0.012840
vt 0.083916 0.085731
vt 0.041913 0.122277
vt 0.068362 0.134644
vt 0.031504 0.030931
vt 0.024923 0.012039
s 0
usemtl Material.014
f 3/1/1 4/2/1 6/3/1 5/4/1
f 6/3/2 4/2/2 9/5/2 10/6/2
f 2/7/3 157/8/3 158/9/3 8/10/3
f 1/11/4 6/3/4 10/6/4 7/12/4
f 4/2/5 2/7/5 8/10/5 9/5/5
f 16/13/6 15/14/6 21/15/6 22/16/6
f 7/12/7 10/6/7 16/13/7 11/17/7
f 9/5/8 8/10/8 14/18/8 15/14/8
f 10/6/9 9/5/9 15/14/9 16/13/9
f 8/10/10 158/9/10 159/19/10 14/18/10
f 17/20/11 22/16/11 28/21/11 23/22/11
f 14/18/12 13/23/12 19/24/12 20/25/12
f 12/26/13 11/17/13 17/20/13 18/27/13
f 11/17/14 16/13/14 22/16/14 17/20/14
f 15/14/15 14/18/15 20/25/15 21/15/15
f 13/23/16 12/26/16 18/27/16 19/24/16
f 28/21/17 27/28/17 33/29/17 34/30/17
f 21/15/18 20/25/18 26/31/18 27/28/18
f 19/24/19 18/27/19 24/32/19 25/33/19
f 22/16/20 21/15/20 27/28/20 28/21/20
f 20/25/21 19/24/21 25/33/21 26/31/21
f 18/27/22 17/20/22 23/22/22 24/32/22
f 29/34/23 34/30/23 40/35/23 35/36/23
f 26/31/24 25/33/24 31/37/24 32/38/24
f 24/32/25 23/22/25 29/34/25 30/39/25
f 23/22/26 28/21/26 34/30/26 29/34/26
f 27/28/27 26/31/27 32/38/27 33/29/27
f 25/33/28 24/32/28 30/39/28 31/37/28
f 40/35/29 39/40/29 45/41/29 46/42/29
f 33/29/30 32/38/30 38/43/30 39/40/30
f 31/37/31 30/39/31 36/44/31 37/45/31
f 34/30/32 33/29/32 39/40/32 40/35/32
f 32/38/33 31/37/33 37/45/33 38/43/33
f 30/39/34 29/34/34 35/36/34 36/44/34
f 41/46/35 46/42/35 52/47/35 47/48/35
f 38/43/36 37/45/36 43/49/36 44/50/36
f 36/44/37 35/36/37 41/46/37 42/51/37
f 35/36/38 40/35/38 46/42/38 41/46/38
f 39/40/39 38/43/39 44/50/39 45/41/39
f 37/45/40 36/44/40 42/51/40 43/49/40
f 52/47/41 51/52/41 55/53/41 56/54/41
f 45/41/42 44/50/42 50/55/42 51/52/42
f 43/49/43 42/51/43 48/56/43 49/57/43
f 46/42/44 45/41/44 51/52/44 52/47/44
f 44/50/45 43/49/45 49/57/45 50/55/45
f 42/51/46 41/46/46 47/48/46 48/56/46
f 50/55/47 49/57/47 165/58/47 162/59/47 54/60/47
f 48/56/48 47/48/48 53/61/48 166/62/48 164/63/48
f 47/48/49 52/47/49 56/54/49 53/61/49
f 51/52/50 50/55/50 54/60/50 55/53/50
f 49/57/51 48/56/51 164/63/51 165/58/51
f 4/2/116 155/170/116 154/171/116 2/7/116
f 153/172/117 156/173/117 6/3/117 1/11/117
f 14/18/118 159/19/118 161/174/118 13/23/118
f 154/171/119 157/8/119 2/7/119
f 161/174/120 160/176/120 172/177/120
f 162/178/121 163/179/121 155/170/121 4/2/121 3/1/121
f 162/59/122 167/180/122 166/62/122 53/61/122 56/54/122 55/53/122 54/60/122
f 168/181/123 153/172/123 1/11/123 7/12/123
f 160/176/124 169/182/124 168/181/124 7/12/124 11/17/124 12/26/124 172/177/124
f 5/4/125 6/3/125 156/173/125 60/183/125 166/184/125
f 172/177/126 12/26/126 13/23/126 161/174/126
usemtl Material.020
f 57/64/52 58/65/52 60/66/52 59/67/52
f 59/67/53 60/66/53 62/68/53 61/69/53
f 61/69/54 62/68/54 64/70/54 63/71/54 158/72/54
f 63/71/55 64/70/55 66/73/55 65/74/55
f 111/75/56 110/76/56 69/77/56 71/78/56
f 65/74/57 66/73/57 68/79/57 67/80/57
f 67/80/58 68/79/58 58/65/58 57/64/58
f 82/81/58 81/82/58 75/83/58 80/84/58
f 69/77/59 70/85/59 74/86/59 73/87/59 72/88/59 71/78/59
f 115/89/60 114/90/60 73/91/60 74/86/60
f 110/76/61 118/92/61 70/85/61 69/77/61
f 119/93/62 111/75/62 71/78/62 72/88/62
f 118/92/63 115/89/63 74/86/63 70/85/63
f 114/90/64 119/93/64 72/88/64 73/91/64
f 78/94/65 79/95/65 107/96/65 106/97/65
f 84/98/55 83/99/55 79/95/55 78/94/55
f 86/100/66 85/101/66 77/102/66 76/103/66
f 83/99/57 82/81/57 80/84/57 79/95/57
f 61/69/54 158/72/54 159/112/54
f 57/64/69 59/67/69 170/113/69 86/114/69 81/115/69
f 65/74/57 67/80/57 82/116/57 83/117/57
f 59/67/66 61/69/66 159/112/66 171/118/66 170/113/66
f 63/71/55 65/74/55 83/117/55 84/119/55
f 67/80/58 57/64/58 81/115/58 82/116/58
f 103/144/86 104/145/86 105/146/86 106/97/86 107/96/86 108/147/86
f 76/103/87 77/102/87 105/146/87 104/145/87
f 79/95/88 80/84/88 108/147/88 107/96/88
f 77/102/89 78/94/89 106/97/89 105/146/89
f 75/83/90 76/103/90 104/145/90 103/144/90
f 80/84/91 75/83/91 103/144/91 108/147/91
f 66/73/92 64/70/92 120/148/92 113/149/92
f 113/149/92 120/148/92 119/93/92 114/90/92
f 58/65/93 68/79/93 116/150/93 117/151/93
f 117/151/93 116/150/93 115/89/93 118/92/93
f 64/70/94 62/68/94 112/152/94 120/148/94
f 120/148/94 112/152/94 111/75/94 119/93/94
f 60/66/95 58/65/95 117/151/95 109/153/95
f 109/153/96 117/151/96 118/92/96 110/76/96
f 68/79/97 66/73/97 113/149/97 116/150/97
f 116/150/97 113/149/97 114/90/97 115/89/97
f 62/68/98 60/66/98 109/153/98 112/152/98
f 112/152/99 109/153/99 110/76/99 111/75/99
f 159/112/54 158/72/54 63/71/54 84/119/54 85/175/54 171/118/54
f 170/113/66 171/118/66 85/175/66 86/114/66
usemtl Material.021
f 135/120/70 134/121/70 101/122/70 100/123/70
f 131/124/71 130/125/71 97/126/71 98/127/71
f 134/121/80 131/124/80 98/127/80 101/122/80
f 139/140/81 138/141/81 99/136/81 95/139/81
f 141/142/82 139/140/82 95/139/82 96/138/82
f 138/141/83 144/143/83 102/137/83 99/136/83
f 144/143/84 141/142/84 96/138/84 102/137/84
f 130/125/85 135/120/85 100/123/85 97/126/85
f 125/155/101 128/154/101 127/134/101 126/132/101
f 128/154/103 124/156/103 123/128/103 127/134/103
f 121/157/105 125/155/105 126/132/105 122/129/105
f 124/156/107 121/157/107 122/129/107 123/128/107
f 89/133/85 92/135/85 136/158/85 129/159/85
f 93/131/80 90/130/80 132/160/80 133/161/80
f 90/130/71 89/133/71 129/159/71 132/160/71
f 92/135/70 93/131/70 133/161/70 136/158/70
f 94/111/84 88/110/84 142/162/84 143/163/84
f 91/106/83 94/111/83 143/163/83 137/164/83
f 88/110/82 87/107/82 140/165/82 142/162/82
f 87/107/81 91/106/81 137/164/81 140/165/81
f 149/167/109 148/166/109 147/108/109 150/105/109
f 145/169/111 152/168/111 151/104/111 146/109/111
f 148/166/113 145/169/113 146/109/113 147/108/113
f 152/168/115 149/167/115 150/105/115 151/104/115
usemtl Material.022
f 151/104/67 150/105/67 91/106/67 87/107/67
f 147/108/68 146/109/68 88/110/68 94/111/68
f 123/128/72 122/129/72 90/130/72 93/131/72
f 122/129/73 126/132/73 89/133/73 90/130/73
f 146/109/74 151/104/74 87/107/74 88/110/74
f 127/134/75 123/128/75 93/131/75 92/135/75
f 126/132/76 127/134/76 92/135/76 89/133/76
f 150/105/77 147/108/77 94/111/77 91/106/77
f 99/136/78 102/137/78 96/138/78 95/139/78
f 100/123/79 101/122/79 98/127/79 97/126/79
f 77/102/100 85/101/100 128/154/100 125/155/100
f 85/101/102 84/98/102 124/156/102 128/154/102
f 78/94/104 77/102/104 125/155/104 121/157/104
f 84/98/106 78/94/106 121/157/106 124/156/106
f 129/159/85 136/158/85 135/120/85 130/125/85
f 133/161/80 132/160/80 131/124/80 134/121/80
f 132/160/71 129/159/71 130/125/71 131/124/71
f 136/158/70 133/161/70 134/121/70 135/120/70
f 143/163/84 142/162/84 141/142/84 144/143/84
f 137/164/83 143/163/83 144/143/83 138/141/83
f 142/162/82 140/165/82 139/140/82 141/142/82
f 140/165/81 137/164/81 138/141/81 139/140/81
f 81/82/108 86/100/108 148/166/108 149/167/108
f 76/103/110 75/83/110 152/168/110 145/169/110
f 86/100/112 76/103/112 145/169/112 148/166/112
f 75/83/114 81/82/114 149/167/114 152/168/114
